<svg xmlns="http://www.w3.org/2000/svg" width="64" height="64" viewBox="0 0 64 64" role="img" aria-labelledby="title"><title id="title">Coins reference symbol</title><g stroke="#806325" stroke-width="2.5" stroke-linecap="round" stroke-linejoin="round"><path d="M7 36v14c0 9 26 9 26 0V36Z" fill="#d5ab48"/><ellipse cx="20" cy="36" rx="13" ry="7" fill="#f2d079"/><path d="M7 43c3 8 23 8 26 0M31 17v28c0 9 26 9 26 0V17Z" fill="#d5ab48"/><ellipse cx="44" cy="17" rx="13" ry="7" fill="#f2d079"/><path d="M31 25c3 8 23 8 26 0M31 33c3 8 23 8 26 0M31 41c3 8 23 8 26 0" fill="none"/></g></svg>
